<?xml version="1.0" encoding="utf-8"?>

<!DOCTYPE svg PUBLIC "-//W3C//DTD SVG 1.1//EN" "http://www.w3.org/Graphics/SVG/1.1/DTD/svg11.dtd">
<!-- Uploaded to: SVG Repo, www.svgrepo.com, Generator: SVG Repo Mixer Tools -->
<svg version="1.1" id="Layer_1" xmlns:sketch="http://www.bohemiancoding.com/sketch/ns"
	 xmlns="http://www.w3.org/2000/svg" xmlns:xlink="http://www.w3.org/1999/xlink"  width="800px" height="800px"
	 viewBox="0 0 65 46" enable-background="new 0 0 65 46" xml:space="preserve">
<title>Sewing-machine</title>
<desc>Created with Sketch.</desc>
<g id="Page-1" sketch:type="MSPage">
	<g id="Sewing-machine" transform="translate(1.000000, 1.000000)" sketch:type="MSLayerGroup">
		<path id="Shape_1_" sketch:type="MSShapeGroup" fill="none" stroke="#6B6C6E" stroke-width="2" d="M8.9,25v7"/>
		<path id="Shape_2_" sketch:type="MSShapeGroup" fill="none" stroke="#6B6C6E" stroke-width="2" d="M8.9,29h1.9"/>
		<path id="Shape" sketch:type="MSShapeGroup" fill="none" stroke="#6B6C6E" stroke-width="2" d="M61.1,35H45.333H50
			c0-12.8,2.9-16.8,4-20v5.5c0,1.4,1,1.5,2.1,1.5c1.1,0,1.9-0.1,1.9-1.5v-15C58,4.1,57.1,4,56.1,4C55,4,54,4.1,54,5.5V10
			c0-2.5-6.6-3.6-9-3.9V1h-4v5H15.7c-3.9,0-3.9-4-3.9-4V1c0-1.1-0.9-1-1.9-1H8C6.9,0,6.1-0.1,6.1,1v23c0,1.1,0.9,1,1.9,1h1.1
			c1.1,0,1.9,0.1,1.9-1v-5c0-1,1.7-5,5.6-5S31,13,33,15c3.9,4-3.1,13.2-2.9,20h5.067H1.9C0.8,35,0,35.9,0,37v5c0,1.1,0.9,2,1.9,2H61
			c1.1,0,1.9-0.9,1.9-2v-5C63,35.9,62.1,35,61.1,35L61.1,35z"/>
	</g>
</g>
</svg>